<svg data-v-423bf9ae="" xmlns="http://www.w3.org/2000/svg" viewBox="0 0 591 90" class="iconLeftSlogan"><!----><!----><!----><g data-v-423bf9ae="" id="52aa38c9-d6ae-4854-986f-6b5907ebac12" fill="white" transform="matrix(5.964215028353327,0,0,5.964215028353327,102.06758841826894,-22.18688031453052)"><path d="M5.81 3.98C5.36 3.92 5.01 3.92 4.49 3.92L1.33 3.92L1.33 13.58L2.87 13.58L2.87 9.77L4.49 9.77C5.01 9.77 5.36 9.77 5.81 9.72C7.21 9.53 8.36 8.55 8.36 6.85C8.36 5.14 7.32 4.17 5.81 3.98ZM5.52 8.47C5.26 8.51 4.93 8.53 4.54 8.53L2.87 8.53L2.87 5.17L4.54 5.17C4.93 5.17 5.26 5.18 5.52 5.22C6.19 5.35 6.73 5.82 6.73 6.85C6.73 7.87 6.19 8.34 5.52 8.47ZM16.52 11.09C16.42 10.08 16.06 9.24 15.19 8.86C16.21 8.55 16.98 7.81 16.98 6.55C16.98 4.90 15.93 4.16 14.53 3.98C14.07 3.92 13.72 3.92 13.20 3.92L9.87 3.92L9.87 13.58L11.41 13.58L11.41 9.55L12.91 9.55C13.15 9.55 13.38 9.55 13.62 9.56C14.50 9.62 14.88 10.26 15.01 11.28C15.12 12.35 15.25 12.95 15.50 13.58L17.19 13.58C16.80 13.05 16.63 12.31 16.52 11.09ZM11.41 8.36L11.41 5.14L13.12 5.14C13.51 5.14 13.76 5.15 14.01 5.19C14.84 5.31 15.36 5.73 15.36 6.75C15.36 7.77 14.73 8.25 13.89 8.33C13.65 8.36 13.41 8.36 13.02 8.36ZM22.78 3.72C19.81 3.72 18.12 5.75 18.12 8.75C18.12 11.73 19.81 13.78 22.78 13.78C25.73 13.78 27.43 11.73 27.43 8.75C27.43 5.75 25.73 3.72 22.78 3.72ZM22.78 12.60C20.89 12.60 19.77 11.14 19.77 8.75C19.77 6.34 20.89 4.90 22.78 4.90C24.65 4.90 25.77 6.34 25.77 8.75C25.77 11.14 24.65 12.60 22.78 12.60ZM36.18 5.14L36.18 3.92L27.90 3.92L27.90 5.14L31.28 5.14L31.28 13.58L32.80 13.58L32.80 5.14ZM44.14 12.35L39.00 12.35L39.00 9.35L43.61 9.35L43.61 8.13L39.00 8.13L39.00 5.14L44.00 5.14L44.00 3.92L37.46 3.92L37.46 13.58L44.14 13.58ZM49.84 3.72C47.12 3.72 45.22 5.75 45.22 8.79C45.22 11.73 46.91 13.78 49.67 13.78C52.19 13.78 53.61 12.33 53.80 10.44L53.82 10.30L52.29 10.30L52.26 10.44C52.00 11.75 51.20 12.60 49.74 12.60C48.03 12.60 46.89 11.12 46.89 8.72C46.89 6.44 48.02 4.90 49.81 4.90C51.27 4.90 52.07 5.73 52.33 7.03L52.36 7.17L53.89 7.17L53.87 7.03C53.68 5.12 52.36 3.72 49.84 3.72ZM62.99 5.14L62.99 3.92L54.71 3.92L54.71 5.14L58.09 5.14L58.09 13.58L59.61 13.58L59.61 5.14ZM68.11 3.72C65.14 3.72 63.45 5.75 63.45 8.75C63.45 11.73 65.14 13.78 68.11 13.78C71.06 13.78 72.76 11.73 72.76 8.75C72.76 5.75 71.06 3.72 68.11 3.72ZM68.11 12.60C66.22 12.60 65.10 11.14 65.10 8.75C65.10 6.34 66.22 4.90 68.11 4.90C69.99 4.90 71.11 6.34 71.11 8.75C71.11 11.14 69.99 12.60 68.11 12.60ZM81.24 11.09C81.14 10.08 80.78 9.24 79.91 8.86C80.93 8.55 81.70 7.81 81.70 6.55C81.70 4.90 80.65 4.16 79.25 3.98C78.79 3.92 78.44 3.92 77.92 3.92L74.59 3.92L74.59 13.58L76.13 13.58L76.13 9.55L77.63 9.55C77.87 9.55 78.11 9.55 78.34 9.56C79.23 9.62 79.60 10.26 79.73 11.28C79.84 12.35 79.97 12.95 80.22 13.58L81.91 13.58C81.52 13.05 81.35 12.31 81.24 11.09ZM76.13 8.36L76.13 5.14L77.84 5.14C78.23 5.14 78.48 5.15 78.74 5.19C79.56 5.31 80.08 5.73 80.08 6.75C80.08 7.77 79.45 8.25 78.61 8.33C78.37 8.36 78.13 8.36 77.74 8.36Z"></path></g><!----><g data-v-423bf9ae="" id="5478258d-d580-4070-85f9-22329f99ceeb" transform="matrix(1.2259909482398454,0,0,1.2259909482398454,-16.00454924304696,-15.948051505986996)" stroke="none" fill="white"><circle stroke-width="14.704" stroke-miterlimit="10" cx="50" cy="49.75" r="36.705"></circle><path d="M50 23.563c-14.717 0-26.645 11.93-26.645 26.646 0 14.716 11.928 26.645 26.645 26.645 14.716 0 26.646-11.929 26.646-26.645S64.716 23.563 50 23.563zM32.666 51.499c.05 2.581-3.95 2.576-4 0-.241-12.363 10.495-21.455 22.167-22.333 2.575-.194 2.555 3.808 0 4-9.536.717-18.363 8.269-18.167 18.333zm15.5 2.667c-7.094 0-7.094-11 0-11s7.094 11 0 11zm12.833 10.333c-3.869 0-3.869-6 0-6s3.869 6 0 6z"></path></g><!----><g data-v-423bf9ae="" id="fd69b296-245b-443f-b118-b2cc130140c2" fill="white" transform="matrix(0.7001824344502752,0,0,0.7001824344502752,109.43985426783135,58.99873921274351)"><path d="M6.43 9.91C6.29 9.65 6.09 9.39 5.85 9.21C5.61 9.03 5.36 8.88 5.07 8.75C4.77 8.62 4.45 8.51 4.14 8.41C3.84 8.32 3.53 8.20 3.23 8.11C2.94 7.99 2.67 7.87 2.44 7.71C2.20 7.56 2.02 7.38 1.88 7.15C1.74 6.93 1.65 6.65 1.65 6.31C1.65 6.06 1.71 5.82 1.81 5.59C1.90 5.35 2.04 5.15 2.23 4.97C2.41 4.79 2.63 4.65 2.91 4.55C3.19 4.45 3.50 4.40 3.86 4.40C4.54 4.40 5.15 4.51 5.71 4.75C5.75 5.54 5.78 5.99 5.78 6.06C5.80 6.29 5.88 6.41 6.08 6.41L6.41 6.41L6.41 4.38C5.53 4.00 4.69 3.81 3.86 3.81C3.40 3.81 3.00 3.88 2.63 4.02C2.27 4.16 1.97 4.34 1.74 4.58C1.50 4.82 1.30 5.08 1.18 5.39C1.05 5.70 0.99 6.02 0.99 6.36C0.99 6.78 1.06 7.14 1.20 7.42C1.34 7.70 1.54 7.92 1.78 8.12C2.02 8.32 2.27 8.46 2.56 8.58C2.86 8.71 3.18 8.82 3.49 8.92C3.79 9.02 4.09 9.11 4.40 9.21C4.69 9.31 4.96 9.45 5.19 9.60C5.43 9.76 5.61 9.94 5.75 10.16C5.89 10.39 5.96 10.68 5.96 11.03C5.96 11.35 5.91 11.66 5.80 11.94C5.68 12.22 5.53 12.46 5.32 12.67C5.11 12.88 4.84 13.05 4.54 13.16C4.23 13.29 3.88 13.33 3.49 13.33C2.70 13.33 2.04 13.20 1.51 12.95C1.50 12.75 1.50 12.54 1.48 12.32C1.47 12.10 1.47 11.91 1.46 11.76C1.44 11.61 1.44 11.52 1.44 11.51C1.43 11.28 1.33 11.17 1.13 11.17L0.80 11.17L0.80 13.02L0.80 13.20L0.80 13.38C1.65 13.75 2.53 13.93 3.46 13.93C3.96 13.93 4.41 13.85 4.80 13.69C5.19 13.54 5.53 13.31 5.80 13.05C6.06 12.78 6.29 12.46 6.43 12.10C6.57 11.73 6.64 11.34 6.64 10.92C6.64 10.51 6.57 10.18 6.43 9.91ZM24.16 8.86C24.16 8.11 24.04 7.41 23.81 6.79C23.59 6.17 23.27 5.64 22.85 5.19C22.43 4.75 21.94 4.40 21.36 4.16C20.79 3.92 20.13 3.79 19.43 3.79C18.73 3.79 18.10 3.92 17.53 4.16C16.95 4.40 16.45 4.75 16.03 5.19C15.61 5.64 15.29 6.17 15.06 6.79C14.84 7.41 14.71 8.11 14.71 8.86C14.71 9.63 14.84 10.33 15.06 10.95C15.29 11.56 15.61 12.10 16.03 12.54C16.45 12.99 16.95 13.33 17.53 13.57C18.10 13.80 18.73 13.93 19.43 13.93C20.13 13.93 20.79 13.80 21.36 13.57C21.94 13.33 22.43 12.99 22.85 12.54C23.27 12.10 23.59 11.56 23.81 10.95C24.04 10.33 24.16 9.63 24.16 8.86ZM23.41 8.86C23.41 9.56 23.32 10.18 23.13 10.72C22.93 11.27 22.67 11.75 22.32 12.12C21.97 12.50 21.55 12.81 21.06 13.01C20.57 13.20 20.03 13.30 19.43 13.30C18.84 13.30 18.31 13.20 17.82 13.01C17.33 12.81 16.91 12.50 16.56 12.12C16.21 11.75 15.93 11.27 15.74 10.72C15.54 10.18 15.46 9.56 15.46 8.86C15.46 8.18 15.54 7.55 15.74 7.00C15.93 6.45 16.21 5.98 16.56 5.60C16.91 5.22 17.33 4.91 17.82 4.72C18.31 4.52 18.84 4.41 19.43 4.41C20.03 4.41 20.57 4.52 21.06 4.72C21.55 4.91 21.97 5.22 22.32 5.60C22.67 5.98 22.93 6.45 23.13 7.00C23.32 7.55 23.41 8.18 23.41 8.86ZM38.81 11.97C38.61 11.97 38.53 12.08 38.51 12.31C38.51 12.32 38.51 12.38 38.50 12.43C38.49 12.49 38.49 12.59 38.47 12.71C38.46 12.84 38.44 13.01 38.43 13.20L34.34 13.20L34.34 4.47C34.51 4.47 34.65 4.45 34.79 4.45C34.93 4.45 35.04 4.44 35.11 4.44L35.24 4.44C35.42 4.42 35.52 4.34 35.52 4.19L35.52 3.92L34.34 3.92L33.63 3.92L32.44 3.92L32.44 4.19C32.44 4.34 32.54 4.42 32.72 4.44L32.86 4.44C32.93 4.44 33.03 4.45 33.17 4.45C33.31 4.45 33.46 4.47 33.63 4.47L33.63 13.26C33.46 13.26 33.31 13.27 33.17 13.27C33.03 13.27 32.93 13.29 32.86 13.29L32.72 13.29C32.54 13.30 32.44 13.38 32.44 13.54L32.44 13.82L33.63 13.82L38.91 13.82L39.03 13.82L39.16 13.82L39.16 13.55L39.16 12.99L39.16 11.97L38.88 11.97ZM55.48 3.92L54.77 3.92L53.41 3.92L53.41 4.19C53.41 4.34 53.51 4.42 53.69 4.44L53.86 4.44C53.96 4.44 54.10 4.45 54.26 4.45C54.43 4.45 54.60 4.47 54.77 4.47L54.77 10.04C54.77 10.50 54.70 10.92 54.56 11.33C54.42 11.73 54.22 12.08 53.96 12.38C53.69 12.67 53.38 12.89 53.00 13.06C52.63 13.23 52.21 13.31 51.73 13.31C51.25 13.31 50.82 13.23 50.44 13.06C50.06 12.89 49.74 12.66 49.49 12.36C49.22 12.07 49.04 11.72 48.90 11.33C48.76 10.93 48.69 10.50 48.69 10.04L48.69 4.47C48.86 4.47 49.03 4.45 49.20 4.45C49.36 4.45 49.50 4.44 49.60 4.44L49.77 4.44C49.95 4.42 50.05 4.34 50.05 4.19L50.05 3.92L48.69 3.92L47.98 3.92L46.80 3.92L46.80 4.19C46.80 4.34 46.89 4.42 47.07 4.44L47.21 4.44C47.28 4.44 47.38 4.45 47.52 4.45C47.66 4.45 47.81 4.47 47.98 4.47L47.98 10.04C47.98 10.58 48.06 11.09 48.23 11.56C48.40 12.04 48.65 12.46 48.97 12.81C49.29 13.16 49.70 13.44 50.16 13.64C50.62 13.83 51.16 13.93 51.73 13.93C52.30 13.93 52.82 13.83 53.28 13.64C53.75 13.44 54.15 13.16 54.47 12.81C54.80 12.46 55.05 12.04 55.22 11.56C55.38 11.09 55.48 10.58 55.48 10.04L55.48 4.47C55.65 4.47 55.79 4.45 55.93 4.45C56.07 4.45 56.18 4.44 56.25 4.44L56.38 4.44C56.56 4.42 56.66 4.34 56.66 4.19L56.66 3.92ZM72.41 12.21C72.38 12.18 72.34 12.15 72.30 12.15C72.27 12.15 72.25 12.15 72.23 12.17C72.21 12.18 72.18 12.21 72.16 12.22C71.96 12.40 71.75 12.56 71.55 12.70C71.36 12.84 71.15 12.94 70.91 13.03C70.67 13.13 70.42 13.20 70.14 13.24C69.86 13.29 69.55 13.31 69.20 13.31C68.64 13.31 68.10 13.22 67.62 13.01C67.13 12.81 66.72 12.52 66.37 12.14C66.02 11.76 65.73 11.28 65.53 10.74C65.34 10.19 65.24 9.56 65.24 8.86C65.24 8.18 65.34 7.56 65.53 7.01C65.74 6.47 66.02 6.01 66.39 5.61C66.75 5.24 67.19 4.94 67.69 4.73C68.19 4.52 68.74 4.42 69.34 4.42C70.24 4.42 71.06 4.56 71.79 4.89C71.83 5.78 71.88 6.30 71.88 6.41C71.89 6.64 71.97 6.75 72.17 6.75L72.51 6.75L72.51 4.51C71.33 4.03 70.27 3.81 69.34 3.81C68.63 3.81 67.98 3.92 67.38 4.17C66.79 4.42 66.26 4.76 65.84 5.21C65.41 5.66 65.09 6.19 64.85 6.80C64.61 7.42 64.50 8.11 64.50 8.86C64.50 9.63 64.62 10.32 64.85 10.95C65.07 11.58 65.39 12.10 65.80 12.54C66.21 12.99 66.70 13.33 67.27 13.57C67.84 13.80 68.46 13.93 69.15 13.93C69.55 13.93 69.93 13.90 70.28 13.83C70.62 13.76 70.94 13.66 71.23 13.54C71.51 13.41 71.78 13.26 72.02 13.09C72.25 12.91 72.48 12.73 72.69 12.50ZM83.51 4.44C83.69 4.42 83.78 4.34 83.78 4.19L83.78 3.91L82.60 3.91L81.89 3.91L80.70 3.91L80.70 4.19C80.70 4.34 80.79 4.42 80.98 4.44L81.12 4.44C81.19 4.44 81.28 4.45 81.42 4.45C81.56 4.45 81.72 4.47 81.89 4.47L81.89 13.26C81.72 13.26 81.56 13.27 81.42 13.27C81.28 13.27 81.19 13.29 81.12 13.29L80.98 13.29C80.79 13.30 80.70 13.38 80.70 13.54L80.70 13.82L81.89 13.82L82.60 13.82L83.78 13.82L83.78 13.54C83.78 13.38 83.69 13.30 83.51 13.29L83.37 13.29C83.30 13.29 83.20 13.27 83.06 13.27C82.92 13.27 82.77 13.26 82.60 13.26L82.60 4.47C82.77 4.47 82.92 4.45 83.06 4.45C83.20 4.45 83.30 4.44 83.37 4.44ZM101.39 8.86C101.39 8.11 101.26 7.41 101.04 6.79C100.81 6.17 100.49 5.64 100.07 5.19C99.65 4.75 99.16 4.40 98.59 4.16C98.01 3.92 97.36 3.79 96.66 3.79C95.96 3.79 95.33 3.92 94.75 4.16C94.18 4.40 93.67 4.75 93.25 5.19C92.83 5.64 92.51 6.17 92.29 6.79C92.06 7.41 91.94 8.11 91.94 8.86C91.94 9.63 92.06 10.33 92.29 10.95C92.51 11.56 92.83 12.10 93.25 12.54C93.67 12.99 94.18 13.33 94.75 13.57C95.33 13.80 95.96 13.93 96.66 13.93C97.36 13.93 98.01 13.80 98.59 13.57C99.16 13.33 99.65 12.99 100.07 12.54C100.49 12.10 100.81 11.56 101.04 10.95C101.26 10.33 101.39 9.63 101.39 8.86ZM100.63 8.86C100.63 9.56 100.55 10.18 100.35 10.72C100.16 11.27 99.89 11.75 99.54 12.12C99.19 12.50 98.77 12.81 98.28 13.01C97.79 13.20 97.26 13.30 96.66 13.30C96.07 13.30 95.54 13.20 95.05 13.01C94.56 12.81 94.14 12.50 93.79 12.12C93.44 11.75 93.16 11.27 92.96 10.72C92.76 10.18 92.68 9.56 92.68 8.86C92.68 8.18 92.76 7.55 92.96 7.00C93.16 6.45 93.44 5.98 93.79 5.60C94.14 5.22 94.56 4.91 95.05 4.72C95.54 4.52 96.07 4.41 96.66 4.41C97.26 4.41 97.79 4.52 98.28 4.72C98.77 4.91 99.19 5.22 99.54 5.60C99.89 5.98 100.16 6.45 100.35 7.00C100.55 7.55 100.63 8.18 100.63 8.86ZM118.22 3.92L117.59 3.92L116.37 3.92L116.37 4.19C116.37 4.34 116.47 4.42 116.65 4.44L116.79 4.44C116.86 4.44 116.97 4.45 117.11 4.45C117.25 4.45 117.42 4.47 117.59 4.47L117.59 12.22C117.59 12.35 117.59 12.49 117.60 12.63L111.19 4.05C111.15 3.99 111.12 3.95 111.08 3.93C111.03 3.92 110.99 3.91 110.92 3.91L110.57 3.91L109.38 3.91L109.38 4.19C109.38 4.34 109.48 4.42 109.66 4.44L109.80 4.44C109.87 4.44 109.97 4.45 110.11 4.45C110.25 4.45 110.40 4.47 110.57 4.47L110.57 13.26C110.40 13.26 110.25 13.27 110.11 13.27C109.97 13.27 109.87 13.29 109.80 13.29L109.66 13.29C109.48 13.30 109.38 13.38 109.38 13.54L109.38 13.82L110.57 13.82L111.19 13.82L112.41 13.82L112.41 13.54C112.41 13.38 112.31 13.30 112.13 13.29L111.99 13.29C111.92 13.29 111.79 13.27 111.65 13.27C111.51 13.27 111.36 13.26 111.19 13.26L111.19 5.49C111.19 5.36 111.19 5.22 111.17 5.08L117.61 13.68C117.68 13.78 117.75 13.82 117.87 13.82L118.22 13.82L118.22 4.47C118.38 4.47 118.52 4.45 118.66 4.45C118.80 4.45 118.92 4.44 118.99 4.44L119.11 4.44C119.29 4.42 119.39 4.34 119.39 4.19L119.39 3.92ZM128.62 3.92L127.43 3.92L127.43 4.19C127.43 4.34 127.53 4.42 127.71 4.44L127.85 4.44C127.92 4.44 128.02 4.45 128.16 4.45C128.30 4.45 128.45 4.47 128.62 4.47L128.62 13.26C128.45 13.26 128.30 13.27 128.16 13.27C128.02 13.27 127.92 13.29 127.85 13.29L127.71 13.29C127.53 13.30 127.44 13.38 127.44 13.54L127.44 13.82L128.62 13.82L134.55 13.82L134.55 13.22L134.55 11.76L134.20 11.76C134.01 11.76 133.92 11.89 133.91 12.11C133.91 12.14 133.90 12.19 133.90 12.29C133.90 12.39 133.90 12.53 133.88 12.74C133.87 12.95 133.85 13.09 133.85 13.22L129.33 13.22L129.33 9.09L133.28 9.09L133.28 8.51L129.33 8.51L129.33 4.51L133.85 4.51C133.88 5.12 133.91 5.50 133.91 5.63C133.92 5.85 134.01 5.96 134.20 5.96L134.55 5.96L134.55 4.51L134.55 3.92ZM148.86 9.91C148.72 9.65 148.53 9.39 148.29 9.21C148.05 9.03 147.80 8.88 147.50 8.75C147.21 8.62 146.89 8.51 146.58 8.41C146.27 8.32 145.96 8.20 145.67 8.11C145.38 7.99 145.11 7.87 144.87 7.71C144.63 7.56 144.45 7.38 144.31 7.15C144.17 6.93 144.09 6.65 144.09 6.31C144.09 6.06 144.14 5.82 144.24 5.59C144.34 5.35 144.48 5.15 144.66 4.97C144.84 4.79 145.07 4.65 145.35 4.55C145.63 4.45 145.94 4.40 146.30 4.40C146.97 4.40 147.59 4.51 148.15 4.75C148.19 5.54 148.22 5.99 148.22 6.06C148.23 6.29 148.32 6.41 148.51 6.41L148.85 6.41L148.85 4.38C147.97 4.00 147.13 3.81 146.30 3.81C145.84 3.81 145.43 3.88 145.07 4.02C144.70 4.16 144.41 4.34 144.17 4.58C143.93 4.82 143.74 5.08 143.61 5.39C143.49 5.70 143.43 6.02 143.43 6.36C143.43 6.78 143.50 7.14 143.64 7.42C143.78 7.70 143.98 7.92 144.21 8.12C144.45 8.32 144.70 8.46 145.00 8.58C145.29 8.71 145.61 8.82 145.92 8.92C146.23 9.02 146.52 9.11 146.83 9.21C147.13 9.31 147.39 9.45 147.63 9.60C147.87 9.76 148.05 9.94 148.19 10.16C148.33 10.39 148.40 10.68 148.40 11.03C148.40 11.35 148.34 11.66 148.23 11.94C148.12 12.22 147.97 12.46 147.76 12.67C147.55 12.88 147.28 13.05 146.97 13.16C146.66 13.29 146.31 13.33 145.92 13.33C145.14 13.33 144.48 13.20 143.95 12.95C143.93 12.75 143.93 12.54 143.92 12.32C143.91 12.10 143.91 11.91 143.89 11.76C143.88 11.61 143.88 11.52 143.88 11.51C143.86 11.28 143.77 11.17 143.57 11.17L143.23 11.17L143.23 13.02L143.23 13.20L143.23 13.38C144.09 13.75 144.97 13.93 145.89 13.93C146.40 13.93 146.85 13.85 147.24 13.69C147.63 13.54 147.97 13.31 148.23 13.05C148.50 12.78 148.72 12.46 148.86 12.10C149.00 11.73 149.07 11.34 149.07 10.92C149.07 10.51 149.00 10.18 148.86 9.91ZM176.71 6.80C176.48 6.19 176.16 5.68 175.74 5.25C175.32 4.82 174.83 4.48 174.26 4.26C173.68 4.03 173.03 3.92 172.33 3.92L168.90 3.92L167.71 3.92L167.71 4.19C167.71 4.34 167.80 4.42 167.99 4.44L168.13 4.44C168.20 4.44 168.29 4.45 168.43 4.45C168.57 4.45 168.73 4.47 168.90 4.47L168.90 13.26C168.73 13.26 168.57 13.27 168.43 13.27C168.29 13.27 168.20 13.29 168.13 13.29L167.99 13.29C167.80 13.30 167.71 13.38 167.71 13.54L167.71 13.82L168.90 13.82L172.33 13.82C173.03 13.82 173.68 13.71 174.26 13.48C174.83 13.26 175.32 12.92 175.74 12.49C176.16 12.05 176.48 11.54 176.71 10.92C176.93 10.30 177.06 9.63 177.06 8.86C177.06 8.11 176.93 7.42 176.71 6.80ZM176.02 10.72C175.83 11.27 175.57 11.72 175.22 12.10C174.87 12.47 174.45 12.75 173.96 12.95C173.47 13.15 172.93 13.24 172.33 13.24L169.61 13.24L169.61 4.49L172.33 4.49C172.93 4.49 173.47 4.59 173.96 4.79C174.45 4.98 174.87 5.26 175.22 5.64C175.57 6.02 175.83 6.47 176.02 7.01C176.22 7.56 176.32 8.18 176.32 8.86C176.32 9.56 176.22 10.18 176.02 10.72ZM186.54 3.92L185.35 3.92L185.35 4.19C185.35 4.34 185.44 4.42 185.63 4.44L185.77 4.44C185.84 4.44 185.93 4.45 186.07 4.45C186.21 4.45 186.37 4.47 186.54 4.47L186.54 13.26C186.37 13.26 186.21 13.27 186.07 13.27C185.93 13.27 185.84 13.29 185.77 13.29L185.63 13.29C185.44 13.30 185.36 13.38 185.36 13.54L185.36 13.82L186.54 13.82L192.47 13.82L192.47 13.22L192.47 11.76L192.12 11.76C191.93 11.76 191.84 11.89 191.83 12.11C191.83 12.14 191.81 12.19 191.81 12.29C191.81 12.39 191.81 12.53 191.80 12.74C191.79 12.95 191.77 13.09 191.77 13.22L187.25 13.22L187.25 9.09L191.20 9.09L191.20 8.51L187.25 8.51L187.25 4.51L191.77 4.51C191.80 5.12 191.83 5.50 191.83 5.63C191.84 5.85 191.93 5.96 192.12 5.96L192.47 5.96L192.47 4.51L192.47 3.92ZM217.66 4.68C217.07 4.17 216.19 3.92 215.03 3.92L212.62 3.92L211.43 3.92L211.43 4.19C211.43 4.34 211.53 4.42 211.71 4.44L211.85 4.44C211.92 4.44 212.02 4.45 212.16 4.45C212.30 4.45 212.45 4.47 212.62 4.47L212.62 13.26C212.45 13.26 212.30 13.27 212.16 13.27C212.02 13.27 211.92 13.29 211.85 13.29L211.71 13.29C211.53 13.30 211.43 13.38 211.43 13.54L211.43 13.82L212.62 13.82L213.33 13.82L214.51 13.82L214.51 13.54C214.51 13.38 214.41 13.30 214.23 13.29L214.10 13.29C214.03 13.29 213.92 13.27 213.78 13.27C213.64 13.27 213.50 13.26 213.33 13.26L213.33 9.83L215.03 9.83C215.57 9.83 216.06 9.74 216.50 9.60C216.93 9.45 217.29 9.25 217.60 8.99C217.91 8.72 218.15 8.41 218.30 8.05C218.47 7.69 218.54 7.29 218.54 6.86C218.54 5.92 218.25 5.18 217.66 4.68ZM217.63 7.81C217.50 8.11 217.32 8.36 217.08 8.57C216.85 8.78 216.55 8.95 216.20 9.07C215.85 9.20 215.46 9.25 215.03 9.25L213.33 9.25L213.33 4.48L215.03 4.48C215.95 4.48 216.65 4.69 217.13 5.10C217.59 5.50 217.83 6.09 217.83 6.85C217.83 7.20 217.76 7.52 217.63 7.81ZM234.72 13.29L234.63 13.29L234.44 13.29C234.36 13.29 234.28 13.27 234.19 13.27L231.22 9.53C231.14 9.42 231.03 9.32 230.92 9.25C231.35 9.21 231.74 9.11 232.09 8.96C232.44 8.81 232.72 8.61 232.97 8.37C233.21 8.13 233.41 7.85 233.53 7.55C233.66 7.24 233.73 6.89 233.73 6.51C233.73 5.66 233.45 5.03 232.89 4.58C232.33 4.14 231.48 3.92 230.33 3.92L227.92 3.92L226.74 3.92L226.74 4.19C226.74 4.34 226.83 4.42 227.01 4.44L227.15 4.44C227.22 4.44 227.32 4.45 227.46 4.45C227.60 4.45 227.75 4.47 227.92 4.47L227.92 13.26C227.75 13.26 227.60 13.27 227.46 13.27C227.32 13.27 227.22 13.29 227.15 13.29L227.01 13.29C226.83 13.30 226.73 13.38 226.73 13.54L226.73 13.82L227.92 13.82L228.63 13.82L229.81 13.82L229.81 13.54C229.81 13.38 229.71 13.30 229.53 13.29L229.39 13.29C229.32 13.29 229.22 13.27 229.08 13.27C228.94 13.27 228.80 13.26 228.63 13.26L228.63 9.34L229.81 9.34C230.01 9.34 230.15 9.35 230.23 9.39C230.31 9.44 230.40 9.52 230.48 9.62L233.66 13.64C233.72 13.71 233.76 13.75 233.81 13.78C233.87 13.80 233.94 13.82 234.01 13.82L234.08 13.82L234.63 13.82L234.99 13.82L234.99 13.54C234.99 13.38 234.91 13.30 234.72 13.29ZM230.23 8.81L228.63 8.81L228.63 4.48L230.33 4.48C231.21 4.48 231.88 4.66 232.34 5.00C232.81 5.33 233.03 5.87 233.03 6.57C233.03 6.92 232.97 7.21 232.85 7.49C232.72 7.77 232.53 7.99 232.29 8.19C232.05 8.39 231.76 8.55 231.41 8.65C231.06 8.75 230.66 8.81 230.23 8.81ZM252.15 8.86C252.15 8.11 252.03 7.41 251.80 6.79C251.58 6.17 251.26 5.64 250.84 5.19C250.42 4.75 249.93 4.40 249.35 4.16C248.78 3.92 248.12 3.79 247.42 3.79C246.72 3.79 246.09 3.92 245.52 4.16C244.94 4.40 244.44 4.75 244.02 5.19C243.60 5.64 243.28 6.17 243.05 6.79C242.83 7.41 242.70 8.11 242.70 8.86C242.70 9.63 242.83 10.33 243.05 10.95C243.28 11.56 243.60 12.10 244.02 12.54C244.44 12.99 244.94 13.33 245.52 13.57C246.09 13.80 246.72 13.93 247.42 13.93C248.12 13.93 248.78 13.80 249.35 13.57C249.93 13.33 250.42 12.99 250.84 12.54C251.26 12.10 251.58 11.56 251.80 10.95C252.03 10.33 252.15 9.63 252.15 8.86ZM251.40 8.86C251.40 9.56 251.31 10.18 251.12 10.72C250.92 11.27 250.66 11.75 250.31 12.12C249.96 12.50 249.54 12.81 249.05 13.01C248.56 13.20 248.02 13.30 247.42 13.30C246.83 13.30 246.30 13.20 245.81 13.01C245.32 12.81 244.90 12.50 244.55 12.12C244.20 11.75 243.92 11.27 243.73 10.72C243.53 10.18 243.45 9.56 243.45 8.86C243.45 8.18 243.53 7.55 243.73 7.00C243.92 6.45 244.20 5.98 244.55 5.60C244.90 5.22 245.32 4.91 245.81 4.72C246.30 4.52 246.83 4.41 247.42 4.41C248.02 4.41 248.56 4.52 249.05 4.72C249.54 4.91 249.96 5.22 250.31 5.60C250.66 5.98 250.92 6.45 251.12 7.00C251.31 7.55 251.40 8.18 251.40 8.86ZM267.86 3.92L267.67 3.92L260.37 3.92L260.16 3.92L260.06 3.92L260.06 5.96L260.41 5.96C260.61 5.96 260.69 5.85 260.71 5.63C260.71 5.53 260.74 5.17 260.76 4.52L263.66 4.52L263.66 13.26C263.49 13.26 263.35 13.27 263.21 13.27C263.07 13.27 262.96 13.29 262.89 13.29L262.77 13.29C262.58 13.30 262.49 13.38 262.49 13.54L262.49 13.82L263.66 13.82L264.38 13.82L265.57 13.82L265.57 13.54C265.57 13.38 265.47 13.30 265.29 13.29L265.15 13.29C265.08 13.29 264.98 13.27 264.84 13.27C264.70 13.27 264.54 13.26 264.38 13.26L264.38 4.52L267.26 4.52C267.30 5.24 267.32 5.60 267.32 5.63C267.33 5.85 267.43 5.96 267.62 5.96L267.96 5.96L267.96 3.92ZM277.26 3.92L276.07 3.92L276.07 4.19C276.07 4.34 276.16 4.42 276.35 4.44L276.49 4.44C276.56 4.44 276.65 4.45 276.79 4.45C276.93 4.45 277.09 4.47 277.26 4.47L277.26 13.26C277.09 13.26 276.93 13.27 276.79 13.27C276.65 13.27 276.56 13.29 276.49 13.29L276.35 13.29C276.16 13.30 276.08 13.38 276.08 13.54L276.08 13.82L277.26 13.82L283.19 13.82L283.19 13.22L283.19 11.76L282.84 11.76C282.65 11.76 282.56 11.89 282.55 12.11C282.55 12.14 282.53 12.19 282.53 12.29C282.53 12.39 282.53 12.53 282.52 12.74C282.51 12.95 282.49 13.09 282.49 13.22L277.97 13.22L277.97 9.09L281.92 9.09L281.92 8.51L277.97 8.51L277.97 4.51L282.49 4.51C282.52 5.12 282.55 5.50 282.55 5.63C282.56 5.85 282.65 5.96 282.84 5.96L283.19 5.96L283.19 4.51L283.19 3.92ZM299.39 12.21C299.36 12.18 299.32 12.15 299.28 12.15C299.25 12.15 299.24 12.15 299.21 12.17C299.19 12.18 299.17 12.21 299.14 12.22C298.94 12.40 298.73 12.56 298.54 12.70C298.34 12.84 298.13 12.94 297.89 13.03C297.65 13.13 297.40 13.20 297.12 13.24C296.84 13.29 296.53 13.31 296.18 13.31C295.62 13.31 295.08 13.22 294.60 13.01C294.11 12.81 293.71 12.52 293.36 12.14C293.01 11.76 292.71 11.28 292.52 10.74C292.32 10.19 292.22 9.56 292.22 8.86C292.22 8.18 292.32 7.56 292.52 7.01C292.73 6.47 293.01 6.01 293.37 5.61C293.73 5.24 294.17 4.94 294.67 4.73C295.18 4.52 295.72 4.42 296.32 4.42C297.22 4.42 298.05 4.56 298.77 4.89C298.82 5.78 298.86 6.30 298.86 6.41C298.87 6.64 298.96 6.75 299.15 6.75L299.49 6.75L299.49 4.51C298.31 4.03 297.25 3.81 296.32 3.81C295.61 3.81 294.97 3.92 294.36 4.17C293.78 4.42 293.24 4.76 292.82 5.21C292.39 5.66 292.07 6.19 291.83 6.80C291.59 7.42 291.48 8.11 291.48 8.86C291.48 9.63 291.61 10.32 291.83 10.95C292.05 11.58 292.38 12.10 292.78 12.54C293.19 12.99 293.68 13.33 294.25 13.57C294.83 13.80 295.44 13.93 296.13 13.93C296.53 13.93 296.91 13.90 297.26 13.83C297.60 13.76 297.92 13.66 298.21 13.54C298.49 13.41 298.76 13.26 299.00 13.09C299.24 12.91 299.46 12.73 299.67 12.50ZM315.41 12.21C315.38 12.18 315.34 12.15 315.29 12.15C315.27 12.15 315.25 12.15 315.22 12.17C315.21 12.18 315.18 12.21 315.15 12.22C314.96 12.40 314.75 12.56 314.55 12.70C314.36 12.84 314.15 12.94 313.91 13.03C313.67 13.13 313.42 13.20 313.14 13.24C312.86 13.29 312.55 13.31 312.20 13.31C311.64 13.31 311.09 13.22 310.62 13.01C310.13 12.81 309.72 12.52 309.37 12.14C309.02 11.76 308.73 11.28 308.53 10.74C308.34 10.19 308.24 9.56 308.24 8.86C308.24 8.18 308.34 7.56 308.53 7.01C308.74 6.47 309.02 6.01 309.39 5.61C309.75 5.24 310.18 4.94 310.69 4.73C311.19 4.52 311.74 4.42 312.34 4.42C313.24 4.42 314.06 4.56 314.79 4.89C314.83 5.78 314.87 6.30 314.87 6.41C314.89 6.64 314.97 6.75 315.17 6.75L315.50 6.75L315.50 4.51C314.33 4.03 313.26 3.81 312.34 3.81C311.63 3.81 310.98 3.92 310.38 4.17C309.79 4.42 309.26 4.76 308.84 5.21C308.41 5.66 308.08 6.19 307.85 6.80C307.61 7.42 307.50 8.11 307.50 8.86C307.50 9.63 307.62 10.32 307.85 10.95C308.07 11.58 308.39 12.10 308.80 12.54C309.20 12.99 309.69 13.33 310.27 13.57C310.84 13.80 311.46 13.93 312.14 13.93C312.55 13.93 312.93 13.90 313.28 13.83C313.61 13.76 313.94 13.66 314.23 13.54C314.51 13.41 314.78 13.26 315.01 13.09C315.25 12.91 315.48 12.73 315.69 12.50ZM326.51 4.44C326.69 4.42 326.77 4.34 326.77 4.19L326.77 3.91L325.60 3.91L324.88 3.91L323.69 3.91L323.69 4.19C323.69 4.34 323.79 4.42 323.97 4.44L324.11 4.44C324.18 4.44 324.28 4.45 324.42 4.45C324.56 4.45 324.72 4.47 324.88 4.47L324.88 13.26C324.72 13.26 324.56 13.27 324.42 13.27C324.28 13.27 324.18 13.29 324.11 13.29L323.97 13.29C323.79 13.30 323.69 13.38 323.69 13.54L323.69 13.82L324.88 13.82L325.60 13.82L326.77 13.82L326.77 13.54C326.77 13.38 326.69 13.30 326.51 13.29L326.37 13.29C326.30 13.29 326.20 13.27 326.06 13.27C325.92 13.27 325.77 13.26 325.60 13.26L325.60 4.47C325.77 4.47 325.92 4.45 326.06 4.45C326.20 4.45 326.30 4.44 326.37 4.44ZM344.37 8.86C344.37 8.11 344.25 7.41 344.02 6.79C343.80 6.17 343.49 5.64 343.07 5.19C342.65 4.75 342.15 4.40 341.57 4.16C341.00 3.92 340.35 3.79 339.65 3.79C338.95 3.79 338.31 3.92 337.74 4.16C337.16 4.40 336.66 4.75 336.24 5.19C335.82 5.64 335.50 6.17 335.27 6.79C335.05 7.41 334.92 8.11 334.92 8.86C334.92 9.63 335.05 10.33 335.27 10.95C335.50 11.56 335.82 12.10 336.24 12.54C336.66 12.99 337.16 13.33 337.74 13.57C338.31 13.80 338.95 13.93 339.65 13.93C340.35 13.93 341.00 13.80 341.57 13.57C342.15 13.33 342.65 12.99 343.07 12.54C343.49 12.10 343.80 11.56 344.02 10.95C344.25 10.33 344.37 9.63 344.37 8.86ZM343.63 8.86C343.63 9.56 343.55 10.18 343.35 10.72C343.15 11.27 342.89 11.75 342.54 12.12C342.19 12.50 341.77 12.81 341.28 13.01C340.79 13.20 340.26 13.30 339.65 13.30C339.07 13.30 338.52 13.20 338.03 13.01C337.54 12.81 337.12 12.50 336.77 12.12C336.42 11.75 336.15 11.27 335.96 10.72C335.76 10.18 335.66 9.56 335.66 8.86C335.66 8.18 335.76 7.55 335.96 7.00C336.15 6.45 336.42 5.98 336.77 5.60C337.12 5.22 337.54 4.91 338.03 4.72C338.52 4.52 339.07 4.41 339.65 4.41C340.26 4.41 340.79 4.52 341.28 4.72C341.77 4.91 342.19 5.22 342.54 5.60C342.89 5.98 343.15 6.45 343.35 7.00C343.55 7.55 343.63 8.18 343.63 8.86ZM341.68 1.43L340.90 1.43C340.79 1.43 340.70 1.43 340.65 1.46C340.59 1.48 340.54 1.53 340.47 1.58L338.87 3.02L339.37 3.02C339.43 3.02 339.47 3.02 339.51 3.01C339.56 3.00 339.60 2.97 339.64 2.94ZM361.49 3.92L360.86 3.92L359.65 3.92L359.65 4.19C359.65 4.34 359.74 4.42 359.93 4.44L360.07 4.44C360.14 4.44 360.25 4.45 360.39 4.45C360.53 4.45 360.70 4.47 360.86 4.47L360.86 12.22C360.86 12.35 360.86 12.49 360.88 12.63L354.47 4.05C354.42 3.99 354.40 3.95 354.35 3.93C354.31 3.92 354.27 3.91 354.20 3.91L353.85 3.91L352.66 3.91L352.66 4.19C352.66 4.34 352.76 4.42 352.94 4.44L353.08 4.44C353.15 4.44 353.25 4.45 353.39 4.45C353.53 4.45 353.68 4.47 353.85 4.47L353.85 13.26C353.68 13.26 353.53 13.27 353.39 13.27C353.25 13.27 353.15 13.29 353.08 13.29L352.94 13.29C352.76 13.30 352.66 13.38 352.66 13.54L352.66 13.82L353.85 13.82L354.47 13.82L355.68 13.82L355.68 13.54C355.68 13.38 355.59 13.30 355.40 13.29L355.26 13.29C355.19 13.29 355.07 13.27 354.93 13.27C354.79 13.27 354.63 13.26 354.47 13.26L354.47 5.49C354.47 5.36 354.47 5.22 354.45 5.08L360.89 13.68C360.96 13.78 361.03 13.82 361.14 13.82L361.49 13.82L361.49 4.47C361.66 4.47 361.80 4.45 361.94 4.45C362.08 4.45 362.19 4.44 362.26 4.44L362.39 4.44C362.57 4.42 362.67 4.34 362.67 4.19L362.67 3.92ZM388.60 3.92L388.40 3.92L381.11 3.92L380.90 3.92L380.80 3.92L380.80 5.96L381.15 5.96C381.35 5.96 381.43 5.85 381.44 5.63C381.44 5.53 381.47 5.17 381.50 4.52L384.40 4.52L384.40 13.26C384.23 13.26 384.09 13.27 383.95 13.27C383.81 13.27 383.70 13.29 383.63 13.29L383.50 13.29C383.32 13.30 383.22 13.38 383.22 13.54L383.22 13.82L384.40 13.82L385.11 13.82L386.30 13.82L386.30 13.54C386.30 13.38 386.20 13.30 386.02 13.29L385.88 13.29C385.81 13.29 385.71 13.27 385.57 13.27C385.43 13.27 385.28 13.26 385.11 13.26L385.11 4.52L388.00 4.52C388.04 5.24 388.05 5.60 388.05 5.63C388.07 5.85 388.16 5.96 388.36 5.96L388.70 5.96L388.70 3.92ZM397.99 3.92L396.80 3.92L396.80 4.19C396.80 4.34 396.90 4.42 397.08 4.44L397.22 4.44C397.29 4.44 397.39 4.45 397.53 4.45C397.67 4.45 397.82 4.47 397.99 4.47L397.99 13.26C397.82 13.26 397.67 13.27 397.53 13.27C397.39 13.27 397.29 13.29 397.22 13.29L397.08 13.29C396.90 13.30 396.82 13.38 396.82 13.54L396.82 13.82L397.99 13.82L403.93 13.82L403.93 13.22L403.93 11.76L403.58 11.76C403.38 11.76 403.30 11.89 403.28 12.11C403.28 12.14 403.27 12.19 403.27 12.29C403.27 12.39 403.27 12.53 403.26 12.74C403.24 12.95 403.23 13.09 403.23 13.22L398.71 13.22L398.71 9.09L402.65 9.09L402.65 8.51L398.71 8.51L398.71 4.51L403.23 4.51C403.26 5.12 403.28 5.50 403.28 5.63C403.30 5.85 403.38 5.96 403.58 5.96L403.93 5.96L403.93 4.51L403.93 3.92ZM420.13 12.21C420.10 12.18 420.06 12.15 420.01 12.15C419.99 12.15 419.97 12.15 419.94 12.17C419.93 12.18 419.90 12.21 419.87 12.22C419.68 12.40 419.47 12.56 419.27 12.70C419.08 12.84 418.87 12.94 418.63 13.03C418.39 13.13 418.14 13.20 417.86 13.24C417.58 13.29 417.27 13.31 416.92 13.31C416.36 13.31 415.81 13.22 415.34 13.01C414.85 12.81 414.44 12.52 414.09 12.14C413.74 11.76 413.45 11.28 413.25 10.74C413.06 10.19 412.96 9.56 412.96 8.86C412.96 8.18 413.06 7.56 413.25 7.01C413.46 6.47 413.74 6.01 414.11 5.61C414.47 5.24 414.90 4.94 415.41 4.73C415.91 4.52 416.46 4.42 417.06 4.42C417.96 4.42 418.78 4.56 419.51 4.89C419.55 5.78 419.59 6.30 419.59 6.41C419.61 6.64 419.69 6.75 419.89 6.75L420.22 6.75L420.22 4.51C419.05 4.03 417.98 3.81 417.06 3.81C416.35 3.81 415.70 3.92 415.10 4.17C414.51 4.42 413.98 4.76 413.56 5.21C413.13 5.66 412.80 6.19 412.57 6.80C412.33 7.42 412.22 8.11 412.22 8.86C412.22 9.63 412.34 10.32 412.57 10.95C412.79 11.58 413.11 12.10 413.52 12.54C413.92 12.99 414.41 13.33 414.99 13.57C415.56 13.80 416.18 13.93 416.86 13.93C417.27 13.93 417.65 13.90 418.00 13.83C418.33 13.76 418.66 13.66 418.95 13.54C419.23 13.41 419.50 13.26 419.73 13.09C419.97 12.91 420.20 12.73 420.41 12.50ZM437.25 3.92L436.62 3.92L435.40 3.92L435.40 4.19C435.40 4.34 435.50 4.42 435.68 4.44L435.82 4.44C435.89 4.44 436.00 4.45 436.14 4.45C436.28 4.45 436.45 4.47 436.62 4.47L436.62 12.22C436.62 12.35 436.62 12.49 436.63 12.63L430.22 4.05C430.18 3.99 430.15 3.95 430.11 3.93C430.07 3.92 430.02 3.91 429.95 3.91L429.60 3.91L428.41 3.91L428.41 4.19C428.41 4.34 428.51 4.42 428.69 4.44L428.83 4.44C428.90 4.44 429.00 4.45 429.14 4.45C429.28 4.45 429.44 4.47 429.60 4.47L429.60 13.26C429.44 13.26 429.28 13.27 429.14 13.27C429.00 13.27 428.90 13.29 428.83 13.29L428.69 13.29C428.51 13.30 428.41 13.38 428.41 13.54L428.41 13.82L429.60 13.82L430.22 13.82L431.44 13.82L431.44 13.54C431.44 13.38 431.34 13.30 431.16 13.29L431.02 13.29C430.95 13.29 430.82 13.27 430.68 13.27C430.54 13.27 430.39 13.26 430.22 13.26L430.22 5.49C430.22 5.36 430.22 5.22 430.21 5.08L436.65 13.68C436.72 13.78 436.79 13.82 436.90 13.82L437.25 13.82L437.25 4.47C437.42 4.47 437.56 4.45 437.70 4.45C437.84 4.45 437.95 4.44 438.02 4.44L438.14 4.44C438.33 4.42 438.42 4.34 438.42 4.19L438.42 3.92ZM455.73 8.86C455.73 8.11 455.60 7.41 455.38 6.79C455.15 6.17 454.83 5.64 454.41 5.19C453.99 4.75 453.50 4.40 452.93 4.16C452.35 3.92 451.70 3.79 451.00 3.79C450.30 3.79 449.67 3.92 449.09 4.16C448.52 4.40 448.01 4.75 447.59 5.19C447.17 5.64 446.85 6.17 446.63 6.79C446.40 7.41 446.28 8.11 446.28 8.86C446.28 9.63 446.40 10.33 446.63 10.95C446.85 11.56 447.17 12.10 447.59 12.54C448.01 12.99 448.52 13.33 449.09 13.57C449.67 13.80 450.30 13.93 451.00 13.93C451.70 13.93 452.35 13.80 452.93 13.57C453.50 13.33 453.99 12.99 454.41 12.54C454.83 12.10 455.15 11.56 455.38 10.95C455.60 10.33 455.73 9.63 455.73 8.86ZM454.97 8.86C454.97 9.56 454.89 10.18 454.69 10.72C454.50 11.27 454.23 11.75 453.88 12.12C453.53 12.50 453.11 12.81 452.62 13.01C452.13 13.20 451.60 13.30 451.00 13.30C450.41 13.30 449.88 13.20 449.39 13.01C448.90 12.81 448.48 12.50 448.13 12.12C447.78 11.75 447.50 11.27 447.30 10.72C447.10 10.18 447.02 9.56 447.02 8.86C447.02 8.18 447.10 7.55 447.30 7.00C447.50 6.45 447.78 5.98 448.13 5.60C448.48 5.22 448.90 4.91 449.39 4.72C449.88 4.52 450.41 4.41 451.00 4.41C451.60 4.41 452.13 4.52 452.62 4.72C453.11 4.91 453.53 5.22 453.88 5.60C454.23 5.98 454.50 6.45 454.69 7.00C454.89 7.55 454.97 8.18 454.97 8.86ZM470.37 11.97C470.18 11.97 470.09 12.08 470.08 12.31C470.08 12.32 470.08 12.38 470.06 12.43C470.05 12.49 470.05 12.59 470.04 12.71C470.02 12.84 470.01 13.01 469.99 13.20L465.91 13.20L465.91 4.47C466.07 4.47 466.21 4.45 466.35 4.45C466.49 4.45 466.61 4.44 466.68 4.44L466.80 4.44C466.98 4.42 467.08 4.34 467.08 4.19L467.08 3.92L465.91 3.92L465.19 3.92L464.00 3.92L464.00 4.19C464.00 4.34 464.10 4.42 464.28 4.44L464.42 4.44C464.49 4.44 464.59 4.45 464.73 4.45C464.87 4.45 465.02 4.47 465.19 4.47L465.19 13.26C465.02 13.26 464.87 13.27 464.73 13.27C464.59 13.27 464.49 13.29 464.42 13.29L464.28 13.29C464.10 13.30 464.00 13.38 464.00 13.54L464.00 13.82L465.19 13.82L470.47 13.82L470.60 13.82L470.72 13.82L470.72 13.55L470.72 12.99L470.72 11.97L470.44 11.97ZM487.84 8.86C487.84 8.11 487.72 7.41 487.49 6.79C487.27 6.17 486.96 5.64 486.54 5.19C486.12 4.75 485.62 4.40 485.04 4.16C484.47 3.92 483.83 3.79 483.13 3.79C482.43 3.79 481.78 3.92 481.21 4.16C480.63 4.40 480.13 4.75 479.71 5.19C479.29 5.64 478.97 6.17 478.74 6.79C478.52 7.41 478.39 8.11 478.39 8.86C478.39 9.63 478.52 10.33 478.74 10.95C478.97 11.56 479.29 12.10 479.71 12.54C480.13 12.99 480.63 13.33 481.21 13.57C481.78 13.80 482.43 13.93 483.13 13.93C483.83 13.93 484.47 13.80 485.04 13.57C485.62 13.33 486.12 12.99 486.54 12.54C486.96 12.10 487.27 11.56 487.49 10.95C487.72 10.33 487.84 9.63 487.84 8.86ZM487.10 8.86C487.10 9.56 487.02 10.18 486.82 10.72C486.63 11.27 486.36 11.75 486.01 12.12C485.66 12.50 485.24 12.81 484.75 13.01C484.26 13.20 483.73 13.30 483.13 13.30C482.54 13.30 481.99 13.20 481.50 13.01C481.01 12.81 480.59 12.50 480.24 12.12C479.89 11.75 479.63 11.27 479.43 10.72C479.23 10.18 479.14 9.56 479.14 8.86C479.14 8.18 479.23 7.55 479.43 7.00C479.63 6.45 479.89 5.98 480.24 5.60C480.59 5.22 481.01 4.91 481.50 4.72C481.99 4.52 482.54 4.41 483.13 4.41C483.73 4.41 484.26 4.52 484.75 4.72C485.24 4.91 485.66 5.22 486.01 5.60C486.36 5.98 486.63 6.45 486.82 7.00C487.02 7.55 487.10 8.18 487.10 8.86ZM485.16 1.43L484.37 1.43C484.26 1.43 484.18 1.43 484.12 1.46C484.06 1.48 484.01 1.53 483.94 1.58L482.34 3.02L482.85 3.02C482.90 3.02 482.94 3.02 482.99 3.01C483.03 3.00 483.07 2.97 483.11 2.94ZM501.77 9.32L501.77 9.72C501.77 9.76 501.80 9.80 501.83 9.83C501.86 9.86 501.90 9.87 501.96 9.87L503.86 9.87L503.86 12.54C503.64 12.67 503.41 12.78 503.20 12.88C502.99 12.98 502.75 13.08 502.52 13.15C502.28 13.22 502.01 13.27 501.73 13.30C501.45 13.33 501.14 13.34 500.81 13.34C500.19 13.34 499.63 13.24 499.13 13.03C498.62 12.82 498.19 12.53 497.83 12.15C497.46 11.77 497.18 11.30 496.99 10.74C496.79 10.18 496.68 9.56 496.68 8.86C496.68 8.18 496.79 7.56 496.99 7.01C497.18 6.47 497.46 5.99 497.83 5.61C498.19 5.24 498.64 4.94 499.16 4.73C499.67 4.52 500.25 4.42 500.89 4.42C502.07 4.42 503.01 4.58 503.69 4.90C503.73 5.81 503.76 6.31 503.76 6.41C503.78 6.64 503.87 6.75 504.07 6.75L504.41 6.75L504.41 4.51C503.97 4.31 503.41 4.14 502.71 4.00C502.01 3.86 501.42 3.81 500.92 3.81C500.16 3.81 499.48 3.92 498.86 4.16C498.25 4.40 497.73 4.75 497.29 5.18C496.86 5.61 496.54 6.15 496.30 6.78C496.06 7.39 495.95 8.09 495.95 8.86C495.95 9.63 496.06 10.32 496.30 10.95C496.54 11.58 496.86 12.10 497.28 12.54C497.70 12.99 498.22 13.33 498.81 13.57C499.39 13.80 500.04 13.93 500.75 13.93C501.17 13.93 501.55 13.90 501.90 13.86C502.25 13.80 502.57 13.73 502.88 13.65C503.19 13.55 503.47 13.44 503.73 13.30C504.00 13.16 504.25 13.01 504.50 12.84L504.50 9.32ZM515.72 4.44C515.90 4.42 515.98 4.34 515.98 4.19L515.98 3.91L514.81 3.91L514.09 3.91L512.90 3.91L512.90 4.19C512.90 4.34 513.00 4.42 513.18 4.44L513.32 4.44C513.39 4.44 513.49 4.45 513.63 4.45C513.77 4.45 513.93 4.47 514.09 4.47L514.09 13.26C513.93 13.26 513.77 13.27 513.63 13.27C513.49 13.27 513.39 13.29 513.32 13.29L513.18 13.29C513.00 13.30 512.90 13.38 512.90 13.54L512.90 13.82L514.09 13.82L514.81 13.82L515.98 13.82L515.98 13.54C515.98 13.38 515.90 13.30 515.72 13.29L515.58 13.29C515.51 13.29 515.41 13.27 515.27 13.27C515.13 13.27 514.98 13.26 514.81 13.26L514.81 4.47C514.98 4.47 515.13 4.45 515.27 4.45C515.41 4.45 515.51 4.44 515.58 4.44ZM532.06 12.21C532.03 12.18 531.99 12.15 531.94 12.15C531.92 12.15 531.90 12.15 531.87 12.17C531.86 12.18 531.83 12.21 531.80 12.22C531.61 12.40 531.40 12.56 531.20 12.70C531.01 12.84 530.80 12.94 530.56 13.03C530.32 13.13 530.07 13.20 529.79 13.24C529.51 13.29 529.20 13.31 528.85 13.31C528.29 13.31 527.74 13.22 527.27 13.01C526.78 12.81 526.37 12.52 526.02 12.14C525.67 11.76 525.38 11.28 525.18 10.74C524.99 10.19 524.89 9.56 524.89 8.86C524.89 8.18 524.99 7.56 525.18 7.01C525.39 6.47 525.67 6.01 526.04 5.61C526.40 5.24 526.83 4.94 527.34 4.73C527.84 4.52 528.39 4.42 528.99 4.42C529.89 4.42 530.71 4.56 531.44 4.89C531.48 5.78 531.52 6.30 531.52 6.41C531.54 6.64 531.62 6.75 531.82 6.75L532.15 6.75L532.15 4.51C530.98 4.03 529.91 3.81 528.99 3.81C528.28 3.81 527.63 3.92 527.03 4.17C526.44 4.42 525.91 4.76 525.49 5.21C525.06 5.66 524.73 6.19 524.50 6.80C524.26 7.42 524.15 8.11 524.15 8.86C524.15 9.63 524.27 10.32 524.50 10.95C524.72 11.58 525.04 12.10 525.45 12.54C525.85 12.99 526.34 13.33 526.92 13.57C527.49 13.80 528.11 13.93 528.79 13.93C529.20 13.93 529.58 13.90 529.93 13.83C530.26 13.76 530.59 13.66 530.88 13.54C531.16 13.41 531.43 13.26 531.66 13.09C531.90 12.91 532.13 12.73 532.34 12.50ZM549.64 13.22L549.18 13.17L545.40 3.91L544.68 3.91L540.89 13.17L540.44 13.22C540.26 13.23 540.18 13.33 540.18 13.50L540.18 13.82L540.62 13.82L540.92 13.82L541.17 13.82L541.27 13.82L542.58 13.82L542.58 13.50C542.58 13.31 542.47 13.23 542.26 13.22C542.25 13.22 542.22 13.20 542.18 13.20C542.14 13.20 542.08 13.19 541.98 13.19C541.88 13.19 541.76 13.19 541.62 13.17L542.60 10.75L542.67 10.57L547.40 10.57L547.47 10.75L548.45 13.17C548.31 13.19 548.20 13.19 548.10 13.19C548.00 13.19 547.93 13.20 547.89 13.20C547.85 13.20 547.82 13.22 547.81 13.22C547.60 13.23 547.48 13.31 547.48 13.50L547.48 13.82L548.80 13.82L548.90 13.82L549.16 13.82L549.44 13.82L549.91 13.82L549.91 13.50C549.91 13.33 549.82 13.23 549.64 13.22ZM544.84 5.22C544.87 5.14 544.91 5.04 544.94 4.94C544.96 4.84 545.01 4.75 545.03 4.63C545.06 4.75 545.10 4.84 545.13 4.94C545.16 5.04 545.20 5.12 545.23 5.21L547.19 10.04L542.89 10.04Z"></path></g></svg>