<svg data-v-fde0c5aa="" xmlns="http://www.w3.org/2000/svg" viewBox="0 0 300 300" class="font"><!----><defs data-v-fde0c5aa=""><!----></defs><rect data-v-fde0c5aa="" fill="transparent" x="0" y="0" width="300px" height="300px" class="logo-background-square"></rect><defs data-v-fde0c5aa=""><linearGradient data-v-fde0c5aa="" gradientTransform="rotate(25)" id="969cee46-b26a-4468-b971-c8216d85a5ba" x1="0%" y1="0%" x2="100%" y2="0%"><stop data-v-fde0c5aa="" offset="0%" stop-color="#006678" stop-opacity="1"></stop><stop data-v-fde0c5aa="" offset="100%" stop-color="#4FA8FF" stop-opacity="1"></stop></linearGradient></defs><g data-v-fde0c5aa="" id="343e01ff-931e-41be-bfae-94d33b174f71" fill="url(#969cee46-b26a-4468-b971-c8216d85a5ba)" transform="matrix(2.7302059444135467,0,0,2.7302059444135467,36.36882597676227,126.11069863731329)"><path d="M5.81 3.98C5.36 3.92 5.01 3.92 4.49 3.92L1.33 3.92L1.33 13.58L2.87 13.58L2.87 9.77L4.49 9.77C5.01 9.77 5.36 9.77 5.81 9.72C7.21 9.53 8.36 8.55 8.36 6.85C8.36 5.14 7.32 4.17 5.81 3.98ZM5.52 8.47C5.26 8.51 4.93 8.53 4.54 8.53L2.87 8.53L2.87 5.17L4.54 5.17C4.93 5.17 5.26 5.18 5.52 5.22C6.19 5.35 6.73 5.82 6.73 6.85C6.73 7.87 6.19 8.34 5.52 8.47ZM16.52 11.09C16.42 10.08 16.06 9.24 15.19 8.86C16.21 8.55 16.98 7.81 16.98 6.55C16.98 4.90 15.93 4.16 14.53 3.98C14.07 3.92 13.72 3.92 13.20 3.92L9.87 3.92L9.87 13.58L11.41 13.58L11.41 9.55L12.91 9.55C13.15 9.55 13.38 9.55 13.62 9.56C14.50 9.62 14.88 10.26 15.01 11.28C15.12 12.35 15.25 12.95 15.50 13.58L17.19 13.58C16.80 13.05 16.63 12.31 16.52 11.09ZM11.41 8.36L11.41 5.14L13.12 5.14C13.51 5.14 13.76 5.15 14.01 5.19C14.84 5.31 15.36 5.73 15.36 6.75C15.36 7.77 14.73 8.25 13.89 8.33C13.65 8.36 13.41 8.36 13.02 8.36ZM22.78 3.72C19.81 3.72 18.12 5.75 18.12 8.75C18.12 11.73 19.81 13.78 22.78 13.78C25.73 13.78 27.43 11.73 27.43 8.75C27.43 5.75 25.73 3.72 22.78 3.72ZM22.78 12.60C20.89 12.60 19.77 11.14 19.77 8.75C19.77 6.34 20.89 4.90 22.78 4.90C24.65 4.90 25.77 6.34 25.77 8.75C25.77 11.14 24.65 12.60 22.78 12.60ZM36.18 5.14L36.18 3.92L27.90 3.92L27.90 5.14L31.28 5.14L31.28 13.58L32.80 13.58L32.80 5.14ZM44.14 12.35L39.00 12.35L39.00 9.35L43.61 9.35L43.61 8.13L39.00 8.13L39.00 5.14L44.00 5.14L44.00 3.92L37.46 3.92L37.46 13.58L44.14 13.58ZM49.84 3.72C47.12 3.72 45.22 5.75 45.22 8.79C45.22 11.73 46.91 13.78 49.67 13.78C52.19 13.78 53.61 12.33 53.80 10.44L53.82 10.30L52.29 10.30L52.26 10.44C52.00 11.75 51.20 12.60 49.74 12.60C48.03 12.60 46.89 11.12 46.89 8.72C46.89 6.44 48.02 4.90 49.81 4.90C51.27 4.90 52.07 5.73 52.33 7.03L52.36 7.17L53.89 7.17L53.87 7.03C53.68 5.12 52.36 3.72 49.84 3.72ZM62.99 5.14L62.99 3.92L54.71 3.92L54.71 5.14L58.09 5.14L58.09 13.58L59.61 13.58L59.61 5.14ZM68.11 3.72C65.14 3.72 63.45 5.75 63.45 8.75C63.45 11.73 65.14 13.78 68.11 13.78C71.06 13.78 72.76 11.73 72.76 8.75C72.76 5.75 71.06 3.72 68.11 3.72ZM68.11 12.60C66.22 12.60 65.10 11.14 65.10 8.75C65.10 6.34 66.22 4.90 68.11 4.90C69.99 4.90 71.11 6.34 71.11 8.75C71.11 11.14 69.99 12.60 68.11 12.60ZM81.24 11.09C81.14 10.08 80.78 9.24 79.91 8.86C80.93 8.55 81.70 7.81 81.70 6.55C81.70 4.90 80.65 4.16 79.25 3.98C78.79 3.92 78.44 3.92 77.92 3.92L74.59 3.92L74.59 13.58L76.13 13.58L76.13 9.55L77.63 9.55C77.87 9.55 78.11 9.55 78.34 9.56C79.23 9.62 79.60 10.26 79.73 11.28C79.84 12.35 79.97 12.95 80.22 13.58L81.91 13.58C81.52 13.05 81.35 12.31 81.24 11.09ZM76.13 8.36L76.13 5.14L77.84 5.14C78.23 5.14 78.48 5.15 78.74 5.19C79.56 5.31 80.08 5.73 80.08 6.75C80.08 7.77 79.45 8.25 78.61 8.33C78.37 8.36 78.13 8.36 77.74 8.36Z"></path></g><!----><!----></svg>